# xmcd
#
# Track frame offsets:
#	150
#	20725
#	40477
#	60247
#	85779
#	108719
#	129513
#	144590
#	165635
#	192393
#	207063
#	226958
#	247809
#	268613
#	289425
#	307091
#	339478
#
# Disc length: 4655 seconds
#
# Revision: 0
# Processed by: cddbd v1.5.2PL0 Copyright (c) Steve Scherf et al.
# Submitted via: dBpowerAMP V4.0
#
DISCID=f9122d11
DTITLE=Various Artist - hAYTHAM SHAKER
DYEAR=1900
DGENRE=
TTITLE0=hAYTHAM SHAKER - JHJ
TTITLE1=JHU
TTITLE2=HJKJ
TTITLE3=LYOU
TTITLE4=LYO
TTITLE5=KJG
TTITLE6=MNK
TTITLE7=HJFK
TTITLE8=NBK
TTITLE9=FGRT
TTITLE10=NHKM
TTITLE11=FGTR
TTITLE12=HFYT
TTITLE13=GTYRE
TTITLE14=VBFGRE
TTITLE15=NJHG
TTITLE16=BGFC
EXTD=HAYTHAM SHAKER
EXTT0=
EXTT1=
EXTT2=
EXTT3=
EXTT4=
EXTT5=
EXTT6=
EXTT7=
EXTT8=
EXTT9=
EXTT10=
EXTT11=
EXTT12=
EXTT13=
EXTT14=
EXTT15=
EXTT16=
PLAYORDER=
